<svg width="99" height="98" viewBox="0 0 99 98" fill="none" xmlns="http://www.w3.org/2000/svg">
<path d="M82.1667 27.5618C88.3684 27.5618 93.3958 22.5344 93.3958 16.3327C93.3958 10.131 88.3684 5.10352 82.1667 5.10352C75.965 5.10352 70.9375 10.131 70.9375 16.3327C70.9375 22.5344 75.965 27.5618 82.1667 27.5618Z" fill="#6D59E9"/>
<path opacity="0.3" d="M82.166 32.666C73.1418 32.666 65.8327 25.3568 65.8327 16.3327C65.8327 13.3518 66.6902 10.5752 68.1193 8.16602H29.0827C17.8127 8.16602 8.66602 17.2718 8.66602 28.501V52.9193V57.0027C8.66602 68.2318 17.8127 77.3377 29.0827 77.3377H35.2077C36.3102 77.3377 37.7802 78.0727 38.4743 78.971L44.5993 87.0969C47.2943 90.6902 51.7043 90.6902 54.3993 87.0969L60.5243 78.971C61.3002 77.9502 62.5252 77.3377 63.791 77.3377H69.916C81.186 77.3377 90.3327 68.2318 90.3327 57.0027V30.3794C87.9235 31.8085 85.1468 32.666 82.166 32.666Z" fill="#111827"/>
<path d="M49.4993 49.0007C47.2127 49.0007 45.416 47.1632 45.416 44.9173C45.416 42.6715 47.2535 40.834 49.4993 40.834C51.7452 40.834 53.5827 42.6715 53.5827 44.9173C53.5827 47.1632 51.786 49.0007 49.4993 49.0007Z" fill="#111827"/>
<path d="M65.8333 49.0007C63.5467 49.0007 61.75 47.1632 61.75 44.9173C61.75 42.6715 63.5875 40.834 65.8333 40.834C68.0792 40.834 69.9167 42.6715 69.9167 44.9173C69.9167 47.1632 68.12 49.0007 65.8333 49.0007Z" fill="#111827"/>
<path d="M33.1673 49.0007C30.8807 49.0007 29.084 47.1632 29.084 44.9173C29.084 42.6715 30.9215 40.834 33.1673 40.834C35.4132 40.834 37.2507 42.6715 37.2507 44.9173C37.2507 47.1632 35.454 49.0007 33.1673 49.0007Z" fill="#111827"/>
</svg>
